<svg xmlns="http://www.w3.org/2000/svg" viewBox="0 0 1440 200.68"><path fill="rgb(7,51,18)" fill-opacity="1" d="M0,128L26.7,117.3C53.3,107,107,85,160,96C213.3,107,267,149,320,154.7C373.3,160,427,128,480,138.7C533.3,149,587,203,640,192C693.3,181,747,107,800,106.7C853.3,107,907,181,960,197.3C1013.3,213,1067,171,1120,133.3C1173.3,96,1227,64,1280,53.3C1333.3,43,1387,53,1413,58.7L1440,64L1440,0L1413.3,0C1386.7,0,1333,0,1280,0C1226.7,0,1173,0,1120,0C1066.7,0,1013,0,960,0C906.7,0,853,0,800,0C746.7,0,693,0,640,0C586.7,0,533,0,480,0C426.7,0,373,0,320,0C266.7,0,213,0,160,0C106.7,0,53,0,27,0L0,0Z"/></svg>