<svg xmlns="http://www.w3.org/2000/svg" viewBox="0 48.84 1440 271.16"><path fill="rgb(7,51,18)" fill-opacity="1" d="M0,128L26.7,117.3C53.3,107,107,85,160,96C213.3,107,267,149,320,154.7C373.3,160,427,128,480,138.7C533.3,149,587,203,640,192C693.3,181,747,107,800,106.7C853.3,107,907,181,960,197.3C1013.3,213,1067,171,1120,133.3C1173.3,96,1227,64,1280,53.3C1333.3,43,1387,53,1413,58.7L1440,64L1440,320L1413.3,320C1386.7,320,1333,320,1280,320C1226.7,320,1173,320,1120,320C1066.7,320,1013,320,960,320C906.7,320,853,320,800,320C746.7,320,693,320,640,320C586.7,320,533,320,480,320C426.7,320,373,320,320,320C266.7,320,213,320,160,320C106.7,320,53,320,27,320L0,320Z"/></svg>